<?xml version="1.0" encoding="UTF-8" standalone="no"?>
<svg
   xmlns:dc="http://purl.org/dc/elements/1.1/"
   xmlns:cc="http://creativecommons.org/ns#"
   xmlns:rdf="http://www.w3.org/1999/02/22-rdf-syntax-ns#"
   xmlns:svg="http://www.w3.org/2000/svg"
   xmlns="http://www.w3.org/2000/svg"
   xmlns:sodipodi="http://sodipodi.sourceforge.net/DTD/sodipodi-0.dtd"
   xmlns:inkscape="http://www.inkscape.org/namespaces/inkscape"
   version="1.1"
   x="0px"
   y="0px"
   viewBox="0 0 1000 1000"
   enable-background="new 0 0 1000 1000"
   xml:space="preserve"
   id="svg10"
   sodipodi:docname="arrow .svg"
   inkscape:version="1.0.1 (0767f8302a, 2020-10-17)"><defs
   id="defs14" /><sodipodi:namedview
   pagecolor="#ffffff"
   bordercolor="#666666"
   borderopacity="1"
   objecttolerance="10"
   gridtolerance="10"
   guidetolerance="10"
   inkscape:pageopacity="0"
   inkscape:pageshadow="2"
   inkscape:window-width="1366"
   inkscape:window-height="672"
   id="namedview12"
   showgrid="false"
   inkscape:zoom="0.525"
   inkscape:cx="500"
   inkscape:cy="500"
   inkscape:window-x="0"
   inkscape:window-y="27"
   inkscape:window-maximized="1"
   inkscape:current-layer="svg10"
   inkscape:document-rotation="0" />
<metadata
   id="metadata2"> Svg Vector Icons : http://www.onlinewebfonts.com/icon <rdf:RDF><cc:Work
     rdf:about=""><dc:format>image/svg+xml</dc:format><dc:type
       rdf:resource="http://purl.org/dc/dcmitype/StillImage" /></cc:Work></rdf:RDF></metadata>
<g
   id="g8"
   style="fill:#ff0000"><g
     transform="translate(0.000000,511.000000) scale(0.100000,-0.100000)"
     id="g6"
     style="fill:#ff0000"><path
       d="M8784,4984.9c-90.8-35.8-102.8-100.4-102.8-506.6v-389.5L4850.7,258.2L1022.4-3570.1H625.7c-549.6,0-509,45.4-518.5-583.1l-7.2-492.3l71.7-71.7l69.3-71.7h458.8c475.5,0,571.1,16.7,607,107.5c7.2,21.5,14.3,212.7,14.3,425.4v387.1L5149.4-40.5L8980,3790.1h387.1c212.6,0,403.8,7.2,425.3,14.3c90.8,35.8,107.5,131.4,107.5,607v458.8l-69.3,69.3l-69.3,69.3l-463.6-2.4C9044.5,5006.4,8812.7,4996.9,8784,4984.9z"
       id="path4"
       style="fill:#ff0000" /></g></g>
</svg>
