<?xml version="1.0" encoding="utf-8"?>
<!-- Svg Vector Icons : http://www.onlinewebfonts.com/icon -->
<!DOCTYPE svg PUBLIC "-//W3C//DTD SVG 1.1//EN" "http://www.w3.org/Graphics/SVG/1.1/DTD/svg11.dtd">
<svg version="1.1" xmlns="http://www.w3.org/2000/svg" xmlns:xlink="http://www.w3.org/1999/xlink" x="0px" y="0px" viewBox="0 0 1000 1000" enable-background="new 0 0 1000 1000" xml:space="preserve">
<metadata> Svg Vector Icons : http://www.onlinewebfonts.com/icon </metadata>
<g><g transform="translate(0.000000,511.000000) scale(0.100000,-0.100000)"><path d="M2923.3,4723.5c-331.1-58.3-659.5-309.9-815.8-627.7l-87.4-180.1l-13.2-1356L1993.7,1201l-945.5-948.2C168.9-626.5,100-700.7,100-785.4c0-84.8,113.9-203.9,1782.5-1875.1c977.3-980,1811.6-1801,1851.3-1822.2c39.7-21.2,98-37.1,132.4-37.1c45,0,625,564.1,2245.9,2182.4l2185,2182.4l166.8,15.9c211.9,18.5,270.2,50.3,270.2,143c0,58.3-325.8,394.6-1928.1,1999.6C5039.5,3770,4870,3931.6,4798.5,3923.6l-76.8-7.9l-7.9-1088.5l-5.3-1088.6l90-153.6c103.3-169.5,132.4-307.2,116.5-550.9c-18.5-307.2-201.3-569.4-492.6-712.5c-158.9-79.5-198.6-87.4-402.6-84.7c-270.2,2.6-413.2,58.2-598.6,227.8c-317.8,291.3-384,776-156.3,1136.2l90,143l2.7,410.5v410.5l-450.3-450.2l-450.2-450.2v1059.4c0,1191.8,0,1176,201.3,1369.3c137.7,129.8,280.7,185.4,476.7,185.4c288.7,2.6,540.3-182.8,630.3-460.9c37.1-113.9,42.4-286,42.4-1207.7V1537.3l-103.3-111.2c-129.8-143-161.6-291.3-95.4-458.2c185.4-463.5,860.8-339,860.8,161.6c0,143-42.4,238.4-143,333.7l-68.9,63.5v1088.6c0,882-7.9,1120.3-42.4,1260.7C4080.7,4450.7,3511.3,4824.1,2923.3,4723.5z"/><path d="M8652.1-872.8c-111.2-84.8-672.7-1022.3-831.7-1387.8c-211.9-490-219.8-770.7-34.4-1123c437-829,1618.2-799.9,2015.5,47.7c111.2,241,129.8,529.7,47.7,797.2c-103.3,341.7-709.8,1427.6-905.8,1628.8C8864-833.1,8728.9-814.6,8652.1-872.8z"/></g></g>
</svg>