<?xml version="1.0" encoding="UTF-8" standalone="no"?>
<svg
   xmlns:dc="http://purl.org/dc/elements/1.1/"
   xmlns:cc="http://creativecommons.org/ns#"
   xmlns:rdf="http://www.w3.org/1999/02/22-rdf-syntax-ns#"
   xmlns:svg="http://www.w3.org/2000/svg"
   xmlns="http://www.w3.org/2000/svg"
   xmlns:sodipodi="http://sodipodi.sourceforge.net/DTD/sodipodi-0.dtd"
   xmlns:inkscape="http://www.inkscape.org/namespaces/inkscape"
   height="24"
   viewBox="0 0 24 24"
   width="24"
   version="1.1"
   id="svg10"
   sodipodi:docname="mActionUndo.svg"
   inkscape:version="0.92.3 (2405546, 2018-03-11)">
  <metadata
     id="metadata16">
    <rdf:RDF>
      <cc:Work
         rdf:about="">
        <dc:format>image/svg+xml</dc:format>
        <dc:type
           rdf:resource="http://purl.org/dc/dcmitype/StillImage" />
        <dc:title />
      </cc:Work>
    </rdf:RDF>
  </metadata>
  <defs
     id="defs14" />
  <sodipodi:namedview
     pagecolor="#ffffff"
     bordercolor="#666666"
     borderopacity="1"
     objecttolerance="10"
     gridtolerance="10"
     guidetolerance="10"
     inkscape:pageopacity="0"
     inkscape:pageshadow="2"
     inkscape:window-width="1853"
     inkscape:window-height="1025"
     id="namedview12"
     showgrid="false"
     inkscape:pagecheckerboard="true"
     inkscape:zoom="39.333333"
     inkscape:cx="6.0457693"
     inkscape:cy="13.018633"
     inkscape:window-x="67"
     inkscape:window-y="27"
     inkscape:window-maximized="1"
     inkscape:current-layer="svg10" />
  <path
     style="fill:#e30000;fill-rule:evenodd;fill-opacity:1"
     inkscape:connector-curvature="0"
     id="path2"
     d="m 9.499986,3.5 -6,7.5 6,7.5 v -5 h 5 c 2.693494,2.6067 0.970927,5 -2,5 v 2 c 3.407831,0 8,-1.3157 8,-7.5 0,-2.1042 -1.725463,-4.5 -6,-4.5 h -5 z" />
  <path
     style="fill:#e30000;fill-rule:evenodd;fill-opacity:1"
     inkscape:connector-curvature="0"
     id="path4"
     d="m 3.64389,11.0623 5.3554685,7.2774 v -2.25 l -4.9999998,-6.25 z m 6.3554747,1.2774 v 1 h 4.0000003 c 1.349775,1.3063 1.588697,2.5576 1.11914,3.4824 1.462016,-0.8405 1.822867,-2.603 -0.11914,-4.4824 z M 18.54038,17.699 c -1.610492,1.2625 -3.738184,1.6407 -5.541015,1.6407 v -1.1016 c -0.312828,0.064 -0.646484,0.1016 -1,0.1016 v 2 c 2.210076,0 4.910324,-0.5648 6.541015,-2.6407 z" />
  <path
     style="fill:none;stroke:#ffffff;stroke-linejoin:round"
     inkscape:connector-curvature="0"
     id="path6"
     d="m 9.499986,3.5 -6,7.5 6,7.5 v -5 h 5 c 2.693494,2.6067 0.970927,5 -2,5 v 2 c 3.407831,0 8,-1.3157 8,-7.5 0,-2.1042 -1.725463,-4.5 -6,-4.5 h -5 z" />
</svg>
