<?xml version="1.0" encoding="UTF-8" standalone="no"?>
<!-- Generator: Adobe Illustrator 24.1.0, SVG Export Plug-In . SVG Version: 6.00 Build 0)  -->

<svg
   xmlns:dc="http://purl.org/dc/elements/1.1/"
   xmlns:cc="http://creativecommons.org/ns#"
   xmlns:rdf="http://www.w3.org/1999/02/22-rdf-syntax-ns#"
   xmlns:svg="http://www.w3.org/2000/svg"
   xmlns="http://www.w3.org/2000/svg"
   xmlns:sodipodi="http://sodipodi.sourceforge.net/DTD/sodipodi-0.dtd"
   xmlns:inkscape="http://www.inkscape.org/namespaces/inkscape"
   version="1.1"
   id="Layer_1"
   x="0px"
   y="0px"
   viewBox="0 0 48 48"
   style="enable-background:new 0 0 48 48;"
   xml:space="preserve"
   sodipodi:docname="text.svg"
   inkscape:version="0.92.3 (2405546, 2018-03-11)"><metadata
   id="metadata14"><rdf:RDF><cc:Work
       rdf:about=""><dc:format>image/svg+xml</dc:format><dc:type
         rdf:resource="http://purl.org/dc/dcmitype/StillImage" /></cc:Work></rdf:RDF></metadata><defs
   id="defs12" /><sodipodi:namedview
   pagecolor="#ffffff"
   bordercolor="#666666"
   borderopacity="1"
   objecttolerance="10"
   gridtolerance="10"
   guidetolerance="10"
   inkscape:pageopacity="0"
   inkscape:pageshadow="2"
   inkscape:window-width="1366"
   inkscape:window-height="713"
   id="namedview10"
   showgrid="false"
   inkscape:zoom="4.9166667"
   inkscape:cx="24"
   inkscape:cy="24"
   inkscape:window-x="0"
   inkscape:window-y="27"
   inkscape:window-maximized="1"
   inkscape:current-layer="text" />
<style
   type="text/css"
   id="style2">
	.st0{fill:#7A8785;}
</style>
<g
   id="text">
	<g
   id="g6"
   style="opacity:1;fill:#e30000;fill-opacity:1">
		<path
   class="st0"
   d="M7.4,5.5h32.9l0.3,9.9h-1.4c-0.7-3.1-1.6-5.1-2.6-6.1c-1.1-0.9-3.3-1.4-6.6-1.4h-3.2v29.8    c0,2.2,0.4,3.6,1.1,4.2c0.7,0.5,2.2,0.9,4.6,1.1v1h-17v-1.1c2.5-0.2,4-0.6,4.6-1.2c0.6-0.6,0.9-2.2,0.9-4.7V7.9h-3.3    c-3.2,0-5.4,0.5-6.6,1.4c-1.2,0.9-2,3-2.6,6.1H7L7.4,5.5z"
   id="path4"
   style="fill:#e30000;fill-opacity:1" />
	</g>
</g>
</svg>