<?xml version="1.0" encoding="UTF-8" standalone="no"?>
<svg
   xmlns:dc="http://purl.org/dc/elements/1.1/"
   xmlns:cc="http://creativecommons.org/ns#"
   xmlns:rdf="http://www.w3.org/1999/02/22-rdf-syntax-ns#"
   xmlns:svg="http://www.w3.org/2000/svg"
   xmlns="http://www.w3.org/2000/svg"
   xmlns:sodipodi="http://sodipodi.sourceforge.net/DTD/sodipodi-0.dtd"
   xmlns:inkscape="http://www.inkscape.org/namespaces/inkscape"
   height="128pt"
   viewBox="0 0 128 128"
   width="128pt"
   version="1.1"
   id="svg32"
   sodipodi:docname="Activity.svg"
   inkscape:version="0.92.3 (2405546, 2018-03-11)">
  <metadata
     id="metadata38">
    <rdf:RDF>
      <cc:Work
         rdf:about="">
        <dc:format>image/svg+xml</dc:format>
        <dc:type
           rdf:resource="http://purl.org/dc/dcmitype/StillImage" />
        <dc:title />
      </cc:Work>
    </rdf:RDF>
  </metadata>
  <defs
     id="defs36" />
  <sodipodi:namedview
     pagecolor="#ffffff"
     bordercolor="#666666"
     borderopacity="1"
     objecttolerance="10"
     gridtolerance="10"
     guidetolerance="10"
     inkscape:pageopacity="0"
     inkscape:pageshadow="2"
     inkscape:window-width="1366"
     inkscape:window-height="713"
     id="namedview34"
     showgrid="false"
     inkscape:zoom="1.475"
     inkscape:cx="-59.577763"
     inkscape:cy="75.787659"
     inkscape:window-x="0"
     inkscape:window-y="27"
     inkscape:window-maximized="1"
     inkscape:current-layer="svg32" />
  <path
     d="M 97.932212,57.778495 H 116.74577 V 69.066629 H 97.932212 Z m 0,0"
     id="path2"
     inkscape:connector-curvature="0"
     style="fill:#64c37d;stroke-width:0.23516953" />
  <path
     d="m 47.135595,110.45647 c 0,3.11691 2.527153,5.64407 5.644073,5.64407 h 22.576269 c 3.11692,0 5.644073,-2.52716 5.644073,-5.64407 0,-3.11692 -2.527153,-5.64407 -5.644073,-5.64407 H 52.779668 c -3.11692,0 -5.644073,2.52715 -5.644073,5.64407 z m 0,0"
     id="path4"
     inkscape:connector-curvature="0"
     style="fill:#00aeef;stroke-width:0.23516953" />
  <path
     d="M 47.135595,74.710699 H 81.00001 V 85.998835 H 47.135595 Z m 0,0"
     id="path6"
     inkscape:connector-curvature="0"
     style="fill:#ffff54;stroke-width:0.23516953;fill-opacity:1" />
  <path
     d="m 81.00001,16.38866 c 0,-3.116914 -2.527153,-5.644067 -5.644073,-5.644067 H 52.779668 c -3.11692,0 -5.644073,2.527153 -5.644073,5.644067 0,3.116914 2.527153,5.644067 5.644073,5.644067 h 22.576269 c 3.11692,0 5.644073,-2.527153 5.644073,-5.644067 z m 0,0"
     id="path8"
     inkscape:connector-curvature="0"
     style="fill:#00aeef;stroke-width:0.23516953" />
  <path
     d="M 11.389833,57.778495 H 30.203394 V 69.066629 H 11.389833 Z m 0,0"
     id="path10"
     inkscape:connector-curvature="0"
     style="fill:#64c37d;stroke-width:0.23516953" />
  <path
     d="M 77.816948,46.49036 64.067802,40.991432 50.318657,46.49036 64.067802,51.989284 Z m 0,0"
     id="path12"
     inkscape:connector-curvature="0"
     style="fill:#d80027;stroke-width:0.23516953" />
  <path
     d="m 118.62713,54.015781 h -9.40678 V 46.49036 c 0,-1.03897 -0.84239,-1.881359 -1.88136,-1.881359 H 83.244226 L 65.949156,37.691713 V 25.79544 h 9.406781 c 5.194857,0 9.406781,-4.211923 9.406781,-9.40678 0,-5.194857 -4.211924,-9.4067801 -9.406781,-9.4067801 H 52.779668 c -5.194857,0 -9.406781,4.2119231 -9.406781,9.4067801 0,5.194857 4.211924,9.40678 9.406781,9.40678 h 9.406781 v 11.896273 l -17.29507,6.917288 H 20.796614 c -1.038972,0 -1.88136,0.842389 -1.88136,1.881359 v 7.525421 H 9.5084735 c -1.0389713,0 -1.8813539,0.842389 -1.8813539,1.881361 v 15.050845 c 0,1.038972 0.8423826,1.881356 1.8813539,1.881356 H 32.084748 c 1.038972,0 1.881359,-0.842384 1.881359,-1.881356 V 55.897142 c 0,-1.038972 -0.842387,-1.881361 -1.881359,-1.881361 h -9.40678 v -5.644067 h 22.213411 l 17.29507,6.917289 V 70.947987 H 45.254241 c -1.03897,0 -1.881354,0.842384 -1.881354,1.881356 v 15.050851 c 0,1.038971 0.842384,1.881354 1.881354,1.881354 h 16.932208 v 11.288132 h -9.406781 c -5.194857,0 -9.406781,4.21193 -9.406781,9.40679 0,5.19485 4.211924,9.40678 9.406781,9.40678 h 22.576269 c 5.194857,0 9.406781,-4.21193 9.406781,-9.40678 0,-5.19486 -4.211924,-9.40679 -9.406781,-9.40679 H 65.949156 V 89.761548 h 16.932208 c 1.03897,0 1.881354,-0.842383 1.881354,-1.881354 V 72.829343 c 0,-1.038972 -0.842384,-1.881356 -1.881354,-1.881356 H 65.949156 V 55.289003 l 17.29507,-6.917289 h 22.213414 v 5.644067 h -9.406782 c -1.038972,0 -1.881359,0.842389 -1.881359,1.881361 v 15.050845 c 0,1.038972 0.842387,1.881356 1.881359,1.881356 h 22.576272 c 1.03897,0 1.88135,-0.842384 1.88135,-1.881356 V 55.897142 c 0,-1.038972 -0.84238,-1.881361 -1.88135,-1.881361 z M 30.203394,57.778495 V 69.066629 H 11.389833 V 57.778495 Z M 52.779668,22.032727 c -3.11692,0 -5.644073,-2.527153 -5.644073,-5.644067 0,-3.116914 2.527153,-5.644067 5.644073,-5.644067 h 22.576269 c 3.11692,0 5.644073,2.527153 5.644073,5.644067 0,3.116914 -2.527153,5.644067 -5.644073,5.644067 z M 75.355937,104.8124 c 3.11692,0 5.644073,2.52715 5.644073,5.64407 0,3.11691 -2.527153,5.64407 -5.644073,5.64407 H 52.779668 c -3.11692,0 -5.644073,-2.52716 -5.644073,-5.64407 0,-3.11692 2.527153,-5.64407 5.644073,-5.64407 z M 81.00001,74.710699 V 85.998835 H 47.135595 V 74.710699 Z M 64.067802,51.989284 50.318657,46.49036 64.067802,40.991432 77.816948,46.49036 Z M 116.74577,69.066629 H 97.932212 V 57.778495 h 18.813558 z m 0,0"
     id="path14"
     inkscape:connector-curvature="0"
     style="stroke-width:0.23516953" />
</svg>
