<?xml version="1.0" encoding="UTF-8" standalone="no"?>
<svg
   xmlns:dc="http://purl.org/dc/elements/1.1/"
   xmlns:cc="http://creativecommons.org/ns#"
   xmlns:rdf="http://www.w3.org/1999/02/22-rdf-syntax-ns#"
   xmlns:svg="http://www.w3.org/2000/svg"
   xmlns="http://www.w3.org/2000/svg"
   xmlns:sodipodi="http://sodipodi.sourceforge.net/DTD/sodipodi-0.dtd"
   xmlns:inkscape="http://www.inkscape.org/namespaces/inkscape"
   id="Capa_1"
   enable-background="new 0 0 512 512"
   height="128"
   viewBox="0 0 128 128"
   width="128"
   version="1.1"
   sodipodi:docname="setting.svg"
   inkscape:version="0.92.3 (2405546, 2018-03-11)">
  <metadata
     id="metadata74">
    <rdf:RDF>
      <cc:Work
         rdf:about="">
        <dc:format>image/svg+xml</dc:format>
        <dc:type
           rdf:resource="http://purl.org/dc/dcmitype/StillImage" />
        <dc:title></dc:title>
      </cc:Work>
    </rdf:RDF>
  </metadata>
  <defs
     id="defs72" />
  <sodipodi:namedview
     pagecolor="#ffffff"
     bordercolor="#666666"
     borderopacity="1"
     objecttolerance="10"
     gridtolerance="10"
     guidetolerance="10"
     inkscape:pageopacity="0"
     inkscape:pageshadow="2"
     inkscape:window-width="1366"
     inkscape:window-height="713"
     id="namedview70"
     showgrid="false"
     showguides="false"
     inkscape:zoom="2.6074563"
     inkscape:cx="47.663831"
     inkscape:cy="56.66439"
     inkscape:window-x="0"
     inkscape:window-y="27"
     inkscape:window-maximized="1"
     inkscape:current-layer="g67">
    <inkscape:grid
       type="xygrid"
       id="grid76" />
  </sodipodi:namedview>
  <linearGradient
     id="SVGID_1_"
     gradientUnits="userSpaceOnUse"
     x1="514.73999"
     x2="-406.35199"
     y1="325.58899"
     y2="121.569">
    <stop
       offset=".007"
       stop-color="#9494ff"
       id="stop2" />
    <stop
       offset=".992"
       stop-color="#ffe8dc"
       stop-opacity="0"
       id="stop4" />
  </linearGradient>
  <g
     id="g67"
     transform="translate(0,-384)">
    <g
       id="g65"
       transform="matrix(0.2505388,0,0,0.2505388,0.70391868,382.42533)">
      <g
         id="g17"
         style="fill:#0000cc">
        <path
           d="m 474.827,325.363 v -28.77 c 0,-2.761 -2.239,-5 -5,-5 h -19.956 c -1.622,-5.929 -3.972,-11.553 -6.949,-16.778 l 14.109,-14.114 c 1.952,-1.953 1.952,-5.118 -0.001,-7.07 l -20.343,-20.343 c -1.952,-1.952 -5.118,-1.953 -7.07,-0.001 l -14.114,14.109 c -5.225,-2.976 -10.849,-5.326 -16.778,-6.949 v -19.956 c 0,-2.761 -2.239,-5 -5,-5 h -28.77 c -2.761,0 -5,2.239 -5,5 v 19.956 c -5.929,1.622 -11.553,3.972 -16.778,6.949 l -14.114,-14.109 c -1.953,-1.952 -5.118,-1.952 -7.07,0.001 l -20.343,20.343 c -1.952,1.952 -1.953,5.118 -10e-4,7.07 l 14.109,14.114 c -2.976,5.225 -5.326,10.85 -6.949,16.778 h -19.956 c -2.761,0 -5,2.239 -5,5 v 28.77 c 0,2.761 2.239,5 5,5 h 19.956 c 1.622,5.929 3.972,11.553 6.949,16.778 l -14.109,14.114 c -1.952,1.953 -1.952,5.118 10e-4,7.07 l 20.343,20.343 c 1.952,1.952 5.118,1.953 7.07,10e-4 l 14.114,-14.109 c 5.225,2.976 10.85,5.326 16.778,6.949 v 19.956 c 0,2.761 2.239,5 5,5 h 28.77 c 2.761,0 5,-2.239 5,-5 v -19.956 c 5.929,-1.622 11.553,-3.972 16.778,-6.949 l 14.114,14.109 c 1.953,1.952 5.118,1.952 7.07,-10e-4 l 20.343,-20.343 c 1.952,-1.952 1.953,-5.118 0.001,-7.07 l -14.109,-14.114 c 2.976,-5.225 5.326,-10.85 6.949,-16.778 h 19.956 c 2.761,0 5,-2.239 5,-5 z m -95.487,23.115 c -20.711,0 -37.5,-16.789 -37.5,-37.5 0,-20.711 16.789,-37.5 37.5,-37.5 20.711,0 37.5,16.789 37.5,37.5 0,20.711 -16.789,37.5 -37.5,37.5 z"
           id="path11"
           inkscape:connector-curvature="0"
           style="opacity:0.1" />
        <path
           d="M 292.818,431.041 V 411.04 c 0,-2.761 -2.239,-5 -5,-5 h -14.312 c -1.255,-4.588 -3.074,-8.94 -5.377,-12.984 l 10.119,-10.122 c 1.952,-1.953 1.952,-5.118 -10e-4,-7.07 l -14.143,-14.143 c -1.952,-1.952 -5.118,-1.953 -7.07,-10e-4 l -10.122,10.119 c -4.043,-2.303 -8.396,-4.122 -12.984,-5.377 V 352.15 c 0,-2.761 -2.239,-5 -5,-5 h -20.002 c -2.761,0 -5,2.239 -5,5 v 14.312 c -4.588,1.255 -8.94,3.074 -12.984,5.377 L 180.82,361.72 c -1.953,-1.952 -5.118,-1.952 -7.07,10e-4 l -14.144,14.143 c -1.952,1.952 -1.953,5.118 -0.001,7.07 l 10.119,10.122 c -2.303,4.043 -4.122,8.396 -5.377,12.984 h -14.312 c -2.761,0 -5,2.239 -5,5 v 20.002 c 0,2.761 2.239,5 5,5 h 14.312 c 1.255,4.588 3.074,8.94 5.377,12.984 l -10.119,10.122 c -1.952,1.953 -1.952,5.118 0.001,7.07 l 14.144,14.143 c 1.952,1.952 5.118,1.953 7.07,0.001 l 10.122,-10.119 c 4.043,2.303 8.396,4.122 12.984,5.377 v 14.312 c 0,2.761 2.239,5 5,5 h 20.002 c 2.761,0 5,-2.239 5,-5 V 475.62 c 4.588,-1.255 8.94,-3.074 12.984,-5.377 l 10.122,10.119 c 1.953,1.952 5.118,1.952 7.07,-0.001 l 14.143,-14.143 c 1.952,-1.952 1.953,-5.118 10e-4,-7.07 l -10.119,-10.122 c 2.303,-4.043 4.122,-8.396 5.377,-12.984 h 14.312 c 2.761,-10e-4 5,-2.239 5,-5.001 z m -73.892,19.913 c -16.521,0 -29.914,-13.393 -29.914,-29.914 0,-16.521 13.393,-29.914 29.914,-29.914 16.521,0 29.914,13.393 29.914,29.914 0,16.521 -13.393,29.914 -29.914,29.914 z"
           id="path13"
           inkscape:connector-curvature="0"
           style="opacity:0.1" />
        <path
           d="m 292.507,219.653 v -41.835 c 0,-2.761 -2.239,-5 -5,-5 h -28.366 c -2.169,-7.927 -5.311,-15.447 -9.291,-22.433 l 20.055,-20.062 c 1.952,-1.953 1.952,-5.118 -10e-4,-7.07 L 240.322,93.671 c -1.952,-1.952 -5.118,-1.953 -7.07,-0.001 l -20.062,20.055 c -6.986,-3.979 -14.506,-7.121 -22.433,-9.291 V 76.068 c 0,-2.761 -2.239,-5 -5,-5 h -41.835 c -2.761,0 -5,2.239 -5,5 v 28.366 c -7.927,2.169 -15.447,5.311 -22.433,9.291 L 96.428,93.67 c -1.953,-1.952 -5.118,-1.952 -7.07,0.001 l -29.582,29.582 c -1.952,1.952 -1.953,5.118 -0.001,7.07 l 20.055,20.062 c -3.979,6.986 -7.121,14.506 -9.291,22.433 H 42.173 c -2.761,0 -5,2.239 -5,5 v 41.835 c 0,2.761 2.239,5 5,5 h 28.366 c 2.169,7.927 5.311,15.447 9.291,22.433 l -20.055,20.062 c -1.952,1.953 -1.952,5.118 0.001,7.07 L 89.358,303.8 c 1.952,1.952 5.118,1.953 7.07,10e-4 l 20.062,-20.055 c 6.986,3.979 14.506,7.121 22.433,9.291 v 28.366 c 0,2.761 2.239,5 5,5 h 41.835 c 2.761,0 5,-2.239 5,-5 v -28.366 c 7.927,-2.169 15.447,-5.311 22.433,-9.291 l 20.062,20.055 c 1.953,1.952 5.118,1.952 7.07,-10e-4 l 29.582,-29.582 c 1.952,-1.952 1.953,-5.118 0.001,-7.07 l -20.055,-20.062 c 3.979,-6.986 7.121,-14.506 9.291,-22.433 h 28.366 c 2.76,0 4.999,-2.239 4.999,-5 z m -127.667,35.65 c -31.242,0 -56.568,-25.326 -56.568,-56.568 0,-31.242 25.326,-56.568 56.568,-56.568 31.242,0 56.568,25.326 56.568,56.568 0,31.242 -25.326,56.568 -56.568,56.568 z"
           id="path15"
           inkscape:connector-curvature="0"
           style="opacity:0.1" />
      </g>
      <g
         id="g43">
        <g
           id="g25">
          <path
             d="m 474.827,298.363 v -28.77 c 0,-2.761 -2.239,-5 -5,-5 h -19.956 c -1.622,-5.929 -3.972,-11.553 -6.949,-16.778 l 14.109,-14.114 c 1.952,-1.953 1.952,-5.118 -0.001,-7.07 l -20.343,-20.343 c -1.952,-1.952 -5.118,-1.953 -7.07,-0.001 l -14.114,14.109 c -5.225,-2.976 -10.849,-5.326 -16.778,-6.949 v -19.956 c 0,-2.761 -2.239,-5 -5,-5 h -28.77 c -2.761,0 -5,2.239 -5,5 v 19.956 c -5.929,1.622 -11.553,3.972 -16.778,6.949 l -14.114,-14.109 c -1.953,-1.952 -5.118,-1.952 -7.07,0.001 l -20.343,20.343 c -1.952,1.952 -1.953,5.118 -10e-4,7.07 l 14.109,14.114 c -2.976,5.225 -5.326,10.85 -6.949,16.778 h -19.956 c -2.761,0 -5,2.239 -5,5 v 28.77 c 0,2.761 2.239,5 5,5 h 19.956 c 1.622,5.929 3.972,11.553 6.949,16.778 l -14.109,14.114 c -1.952,1.953 -1.952,5.118 10e-4,7.07 l 20.343,20.343 c 1.952,1.952 5.118,1.953 7.07,10e-4 l 14.114,-14.109 c 5.225,2.976 10.85,5.326 16.778,6.949 v 19.956 c 0,2.761 2.239,5 5,5 h 15.49242 13.27758 c 2.761,0 5,-2.239 5,-5 v -19.956 c 5.929,-1.622 11.553,-3.972 16.778,-6.949 l 14.114,14.109 c 1.953,1.952 5.118,1.952 7.07,-10e-4 l 20.343,-20.343 c 1.952,-1.952 1.953,-5.118 0.001,-7.07 l -14.109,-14.114 c 2.976,-5.225 5.326,-10.85 6.949,-16.778 h 19.956 c 2.761,0 5,-2.239 5,-5 z m -95.487,23.115 c -20.711,0 -37.5,-16.789 -37.5,-37.5 0,-20.711 16.789,-37.5 37.5,-37.5 20.711,0 37.5,16.789 37.5,37.5 0,20.711 -16.789,37.5 -37.5,37.5 z"
             id="path19"
             style="fill:#ffeb99;fill-opacity:1"
             inkscape:connector-curvature="0"
             sodipodi:nodetypes="sssccccscccssssccccscccssssccccscccsscssccccscccsssssss" />
          <g
             id="g23">
            <path
               d="m 393.725,384.465 h -28.77 c -5.514,0 -10,-4.486 -10,-10 v -16.239 c -3.728,-1.223 -7.364,-2.729 -10.871,-4.503 l -11.486,11.482 c -1.889,1.888 -4.399,2.928 -7.07,2.928 h -0.001 c -2.671,0 -5.183,-1.041 -7.071,-2.931 L 298.114,344.86 c -1.888,-1.888 -2.929,-4.398 -2.929,-7.07 0,-2.671 1.04,-5.182 2.928,-7.07 l 11.482,-11.486 c -1.774,-3.507 -3.28,-7.143 -4.503,-10.87 h -16.239 c -5.514,0 -10,-4.486 -10,-10 v -28.77 c 0,-5.514 4.486,-10 10,-10 h 16.239 c 1.222,-3.728 2.729,-7.364 4.503,-10.871 l -11.482,-11.486 c -3.897,-3.897 -3.897,-10.241 0,-14.141 l 20.344,-20.343 c 3.899,-3.9 10.243,-3.898 14.141,-0.002 l 11.486,11.483 c 3.507,-1.775 7.143,-3.281 10.871,-4.504 v -16.238 c 0,-5.514 4.486,-10 10,-10 h 28.77 c 5.514,0 10,4.486 10,10 v 16.238 c 3.728,1.223 7.363,2.729 10.871,4.504 l 11.486,-11.483 c 3.9,-3.897 10.244,-3.896 14.141,0.002 l 20.343,20.343 c 3.898,3.899 3.898,10.243 0,14.141 l -11.482,11.486 c 1.774,3.507 3.281,7.144 4.503,10.871 h 16.239 c 5.514,0 10,4.486 10,10 v 28.77 c 0,5.514 -4.486,10 -10,10 h -16.239 c -1.223,3.729 -2.729,7.363 -4.503,10.87 l 11.482,11.486 c 1.888,1.889 2.928,4.399 2.928,7.07 0,2.672 -1.041,5.183 -2.929,7.071 l -20.343,20.342 c -1.888,1.889 -4.399,2.93 -7.07,2.93 -2.671,0 -5.182,-1.039 -7.071,-2.928 l -11.486,-11.482 c -3.506,1.774 -7.142,3.28 -10.871,4.503 v 16.239 c 0.001,5.514 -4.485,10 -9.999,10 z m -50.547,-41.904 c 0.847,0 1.699,0.215 2.474,0.655 4.921,2.804 10.177,4.98 15.623,6.471 2.173,0.594 3.681,2.569 3.681,4.822 v 19.956 h 28.77 v -19.956 c 0,-2.253 1.507,-4.229 3.681,-4.823 5.446,-1.489 10.702,-3.666 15.623,-6.47 1.958,-1.112 4.417,-0.784 6.01,0.809 l 14.114,14.108 20.343,-20.343 -14.109,-14.114 c -1.592,-1.593 -1.923,-4.054 -0.808,-6.011 2.803,-4.92 4.98,-10.176 6.471,-15.622 0.595,-2.173 2.57,-3.68 4.823,-3.68 h 19.956 v -28.77 h -19.956 c -2.253,0 -4.228,-1.507 -4.823,-3.681 -1.49,-5.444 -3.667,-10.701 -6.471,-15.624 -1.114,-1.957 -0.784,-4.417 0.809,-6.01 l 14.109,-14.113 -20.343,-20.343 -14.113,14.109 c -1.593,1.592 -4.055,1.921 -6.01,0.809 -4.922,-2.805 -10.179,-4.981 -15.623,-6.471 -2.173,-0.595 -3.681,-2.57 -3.681,-4.823 v -19.955 h -28.77 v 19.955 c 0,2.253 -1.507,4.229 -3.681,4.822 -5.443,1.49 -10.7,3.667 -15.623,6.472 -1.957,1.114 -4.417,0.783 -6.01,-0.809 l -14.113,-14.109 -20.343,20.343 14.108,14.113 c 1.592,1.593 1.923,4.053 0.809,6.01 -2.804,4.923 -4.981,10.18 -6.471,15.624 -0.595,2.174 -2.569,3.681 -4.823,3.681 h -19.956 v 28.77 h 19.956 c 2.253,0 4.228,1.507 4.823,3.68 1.49,5.445 3.667,10.702 6.471,15.623 1.114,1.956 0.784,4.417 -0.809,6.01 l -14.108,14.114 20.343,20.343 14.113,-14.108 c 0.96,-0.962 2.24,-1.464 3.534,-1.464 z m 36.162,-16.082 c -23.435,0 -42.5,-19.065 -42.5,-42.5 0,-23.435 19.065,-42.5 42.5,-42.5 23.435,0 42.5,19.065 42.5,42.5 0,4.301 -0.642,8.547 -1.907,12.621 -0.819,2.637 -3.621,4.114 -6.258,3.292 -2.637,-0.819 -4.111,-3.621 -3.292,-6.259 0.966,-3.111 1.457,-6.36 1.457,-9.654 0,-17.921 -14.58,-32.5 -32.5,-32.5 -17.92,0 -32.5,14.579 -32.5,32.5 0,17.921 14.58,32.5 32.5,32.5 3.569,0 7.095,-0.585 10.48,-1.737 2.612,-0.894 5.455,0.506 6.345,3.12 0.89,2.614 -0.507,5.455 -3.121,6.346 -4.425,1.506 -9.036,2.271 -13.704,2.271 z"
               id="path21"
               style="fill:#000000;fill-opacity:1"
               inkscape:connector-curvature="0" />
          </g>
        </g>
        <g
           id="g33">
          <path
             d="M 292.818,404.041 V 384.04 c 0,-2.761 -2.239,-5 -5,-5 h -14.312 c -1.255,-4.588 -3.074,-8.94 -5.377,-12.984 l 10.119,-10.122 c 1.952,-1.953 1.952,-5.118 -10e-4,-7.07 l -14.143,-14.143 c -1.952,-1.952 -5.118,-1.953 -7.07,-10e-4 l -10.122,10.119 c -4.043,-2.303 -8.396,-4.122 -12.984,-5.377 V 325.15 c 0,-2.761 -2.239,-5 -5,-5 h -20.002 c -2.761,0 -5,2.239 -5,5 v 14.312 c -4.588,1.255 -8.94,3.074 -12.984,5.377 L 180.82,334.72 c -1.953,-1.952 -5.118,-1.952 -7.07,10e-4 l -14.144,14.143 c -1.952,1.952 -1.953,5.118 -0.001,7.07 l 10.119,10.122 c -2.303,4.043 -4.122,8.396 -5.377,12.984 h -14.312 c -2.761,0 -5,2.239 -5,5 v 20.002 c 0,2.761 2.239,5 5,5 h 14.312 c 1.255,4.588 3.074,8.94 5.377,12.984 l -10.119,10.122 c -1.952,1.953 -1.952,5.118 0.001,7.07 l 14.144,14.143 c 1.952,1.952 5.118,1.953 7.07,0.001 l 10.122,-10.119 c 4.043,2.303 8.396,4.122 12.984,5.377 v 14.312 c 0,2.761 2.239,5 5,5 h 20.002 c 2.761,0 5,-2.239 5,-5 V 448.62 c 4.588,-1.255 8.94,-3.074 12.984,-5.377 l 10.122,10.119 c 1.953,1.952 5.118,1.952 7.07,-0.001 l 9.67643,-9.67643 4.46657,-4.46657 c 1.952,-1.952 1.953,-5.118 10e-4,-7.07 l -10.119,-10.122 c 2.303,-4.043 4.122,-8.396 5.377,-12.984 h 14.312 c 2.761,-10e-4 5,-2.239 5,-5.001 z m -73.892,19.913 c -16.521,0 -29.914,-13.393 -29.914,-29.914 0,-16.521 13.393,-29.914 29.914,-29.914 16.521,0 29.914,13.393 29.914,29.914 0,16.521 -13.393,29.914 -29.914,29.914 z"
             id="path27"
             style="fill:#00aeef;fill-opacity:1"
             inkscape:connector-curvature="0"
             sodipodi:nodetypes="sssccccscccssssccccccccssssccccccccsssscccccsccccssssss" />
          <g
             id="g31">
            <path
               d="m 228.927,472.932 h -20.002 c -5.514,0 -10,-4.486 -10,-10 V 452.31 c -2.409,-0.826 -4.767,-1.803 -7.057,-2.923 l -7.514,7.511 c -3.898,3.898 -10.242,3.899 -14.141,-0.001 l -14.144,-14.144 c -3.897,-3.898 -3.898,-10.241 -0.002,-14.141 l 7.512,-7.515 c -1.121,-2.29 -2.097,-4.647 -2.923,-7.057 h -10.623 c -5.514,0 -10,-4.486 -10,-10 v -20 c 0,-5.514 4.486,-10 10,-10 h 10.623 c 0.826,-2.409 1.802,-4.767 2.923,-7.058 l -7.512,-7.514 c -3.898,-3.899 -3.897,-10.243 0.002,-14.142 l 14.143,-14.143 c 3.898,-3.898 10.242,-3.899 14.141,-10e-4 l 7.514,7.511 c 2.292,-1.121 4.648,-2.098 7.057,-2.923 v -10.622 c 0,-5.514 4.486,-10 10,-10 h 20.002 c 5.514,0 10,4.486 10,10 v 10.622 c 2.408,0.825 4.765,1.802 7.057,2.923 l 7.514,-7.511 c 3.898,-3.897 10.242,-3.897 14.141,0 l 14.144,14.145 c 3.899,3.897 3.899,10.241 0.001,14.141 l -7.512,7.514 c 1.121,2.291 2.098,4.648 2.923,7.058 h 10.623 c 5.514,0 10,4.486 10,10 v 20.001 c 0,5.514 -4.486,10 -10,10 h -10.623 c -0.826,2.409 -1.802,4.767 -2.923,7.057 l 7.511,7.514 c 3.897,3.9 3.896,10.243 -10e-4,14.142 l -14.144,14.144 c -3.899,3.898 -10.243,3.897 -14.142,10e-4 l -7.514,-7.511 c -2.29,1.12 -4.648,2.097 -7.057,2.923 v 10.622 c 0.003,5.512 -4.483,9.999 -9.997,9.999 z m -37.984,-34.689 c 0.847,0 1.699,0.215 2.473,0.655 3.726,2.122 7.706,3.771 11.829,4.899 2.173,0.595 3.68,2.569 3.68,4.822 v 14.312 h 20.002 V 448.62 c 0,-2.253 1.507,-4.228 3.68,-4.822 4.124,-1.129 8.104,-2.777 11.829,-4.899 1.957,-1.112 4.417,-0.784 6.009,0.809 l 10.122,10.118 14.144,-14.143 -10.118,-10.123 c -1.592,-1.593 -1.923,-4.054 -0.808,-6.01 2.122,-3.726 3.771,-7.705 4.898,-11.828 0.595,-2.174 2.569,-3.681 4.823,-3.681 h 14.312 V 384.04 h -14.312 c -2.253,0 -4.228,-1.507 -4.823,-3.681 -1.128,-4.122 -2.776,-8.103 -4.899,-11.829 -1.114,-1.957 -0.783,-4.417 0.809,-6.01 l 10.119,-10.122 -14.144,-14.144 -10.123,10.119 c -1.592,1.592 -4.052,1.923 -6.009,0.809 -3.729,-2.124 -7.708,-3.772 -11.828,-4.898 -2.173,-0.595 -3.681,-2.57 -3.681,-4.823 v -14.312 h -20.002 v 14.312 c 0,2.253 -1.507,4.229 -3.681,4.823 -4.12,1.126 -8.099,2.774 -11.828,4.898 -1.956,1.114 -4.417,0.785 -6.009,-0.809 l -10.122,-10.118 -14.144,14.143 10.118,10.122 c 1.592,1.593 1.923,4.053 0.809,6.01 -2.123,3.727 -3.771,7.707 -4.899,11.829 -0.595,2.174 -2.569,3.681 -4.823,3.681 h -14.312 v 20.001 h 14.312 c 2.253,0 4.228,1.507 4.823,3.681 1.128,4.123 2.776,8.103 4.898,11.828 1.115,1.956 0.784,4.417 -0.808,6.01 l -10.119,10.122 14.144,14.145 10.122,-10.119 c 0.964,-0.963 2.243,-1.465 3.537,-1.465 z m 27.983,-9.289 c -19.251,0 -34.914,-15.662 -34.914,-34.914 0,-19.251 15.662,-34.913 34.914,-34.913 19.252,0 34.914,15.662 34.914,34.913 0,19.252 -15.662,34.914 -34.914,34.914 z m 0,-59.827 c -13.737,0 -24.914,11.176 -24.914,24.913 0,13.737 11.176,24.914 24.914,24.914 13.738,0 24.914,-11.177 24.914,-24.914 0,-13.737 -11.176,-24.913 -24.914,-24.913 z"
               id="path29"
               style="fill:#000000;fill-opacity:1"
               inkscape:connector-curvature="0" />
          </g>
        </g>
        <g
           id="g41">
          <path
             d="m 292.507,192.653 v -41.835 c 0,-2.761 -2.239,-5 -5,-5 h -28.366 c -2.169,-7.927 -5.311,-15.447 -9.291,-22.433 l 20.055,-20.062 c 1.952,-1.953 1.952,-5.118 -10e-4,-7.07 L 240.322,66.671 c -1.952,-1.952 -5.118,-1.953 -7.07,-0.001 L 213.19,86.725 c -6.986,-3.979 -14.506,-7.121 -22.433,-9.291 V 49.068 c 0,-2.761 -2.239,-5 -5,-5 h -41.835 c -2.761,0 -5,2.239 -5,5 v 28.366 c -7.927,2.169 -15.447,5.311 -22.433,9.291 L 96.428,66.67 c -1.953,-1.952 -5.118,-1.952 -7.07,0.001 L 59.776,96.252 c -1.952,1.952 -1.953,5.118 -0.001,7.07 l 20.055,20.062 c -3.979,6.986 -7.121,14.506 -9.291,22.433 H 42.173 c -2.761,0 -5,2.239 -5,5 v 41.835 c 0,2.761 2.239,5 5,5 h 28.366 c 2.169,7.927 5.311,15.447 9.291,22.433 l -20.055,20.062 c -1.952,1.953 -1.952,5.118 0.001,7.07 l 29.582,29.582 c 1.952,1.952 5.118,1.953 7.07,0.001 l 20.062,-20.055 c 6.986,3.979 14.506,7.121 22.433,9.291 v 28.366 c 0,2.761 2.239,5 5,5 h 41.835 c 2.761,0 5,-2.239 5,-5 v -28.366 c 7.927,-2.169 15.447,-5.311 22.433,-9.291 l 12.98019,12.97566 7.08181,7.07934 c 1.953,1.952 5.118,1.952 7.07,-0.001 l 29.582,-29.582 c 1.952,-1.952 1.953,-5.118 0.001,-7.07 l -20.055,-20.062 c 3.979,-6.986 7.121,-14.506 9.291,-22.433 h 28.366 c 2.76,0.001 4.999,-2.238 4.999,-4.999 z m -127.667,35.65 c -31.242,0 -56.568,-25.326 -56.568,-56.568 0,-31.242 25.326,-56.568 56.568,-56.568 31.242,0 56.568,25.326 56.568,56.568 0,31.242 -25.326,56.568 -56.568,56.568 z"
             id="path35"
             style="fill:#d80027;fill-opacity:1"
             inkscape:connector-curvature="0"
             sodipodi:nodetypes="sssccccscccssssccccccccssssccccscccsssscccccsccccssssss" />
          <g
             id="g39">
            <path
               d="m 185.758,304.401 h -41.835 c -5.514,0 -10,-4.486 -10,-10 v -24.626 c -5.696,-1.792 -11.235,-4.087 -16.542,-6.852 l -17.417,17.412 c -3.899,3.898 -10.244,3.898 -14.142,-0.002 L 56.24,250.752 c -3.898,-3.896 -3.899,-10.24 -0.001,-14.14 l 17.412,-17.417 c -2.765,-5.308 -5.06,-10.848 -6.852,-16.543 H 42.173 c -5.514,0 -10,-4.486 -10,-10 v -41.835 c 0,-5.514 4.486,-10 10,-10 h 24.625 c 1.792,-5.696 4.087,-11.235 6.852,-16.542 L 56.238,106.857 c -3.897,-3.897 -3.897,-10.241 0,-14.141 L 85.82,63.135 c 3.899,-3.897 10.243,-3.898 14.142,-0.002 l 17.417,17.412 c 5.306,-2.765 10.845,-5.06 16.542,-6.852 V 49.068 c 0,-5.514 4.486,-10 10,-10 h 41.835 c 5.514,0 10,4.486 10,10 v 24.626 c 5.696,1.792 11.235,4.087 16.542,6.851 l 17.417,-17.411 c 3.9,-3.897 10.244,-3.896 14.141,0.002 l 29.582,29.581 c 3.898,3.9 3.898,10.243 0,14.141 l -17.411,17.418 c 2.765,5.307 5.06,10.846 6.852,16.542 h 24.625 c 5.514,0 10,4.486 10,10 v 41.835 c 0,5.514 -4.486,10 -10,10 h -24.625 c -1.792,5.695 -4.087,11.235 -6.852,16.543 l 17.412,17.416 c 3.897,3.899 3.897,10.243 -0.001,14.141 l -29.582,29.582 c -1.888,1.889 -4.399,2.93 -7.07,2.93 -2.671,0 -5.182,-1.039 -7.071,-2.928 l -17.417,-17.412 c -5.306,2.765 -10.845,5.06 -16.542,6.852 v 24.626 c 0.002,5.512 -4.484,9.998 -9.998,9.998 z m -69.267,-52.656 c 0.847,0 1.699,0.215 2.474,0.655 6.702,3.818 13.86,6.782 21.277,8.813 2.173,0.594 3.68,2.569 3.68,4.822 v 28.366 h 41.835 v -28.366 c 0,-2.253 1.507,-4.229 3.68,-4.822 7.417,-2.03 14.576,-4.994 21.277,-8.813 1.958,-1.112 4.417,-0.783 6.01,0.809 l 20.062,20.055 29.582,-29.582 -20.055,-20.061 c -1.592,-1.593 -1.923,-4.053 -0.809,-6.01 3.818,-6.703 6.783,-13.862 8.813,-21.278 0.595,-2.174 2.569,-3.681 4.823,-3.681 h 28.366 V 150.817 H 259.14 c -2.253,0 -4.228,-1.507 -4.823,-3.681 -2.029,-7.416 -4.994,-14.575 -8.812,-21.277 -1.115,-1.956 -0.784,-4.417 0.808,-6.01 L 266.368,99.786 236.786,70.205 216.725,90.26 c -1.594,1.591 -4.053,1.921 -6.01,0.809 -6.702,-3.818 -13.86,-6.782 -21.277,-8.813 -2.173,-0.594 -3.68,-2.569 -3.68,-4.822 V 49.068 h -41.835 v 28.366 c 0,2.253 -1.507,4.229 -3.68,4.822 -7.417,2.03 -14.576,4.994 -21.277,8.813 -1.956,1.114 -4.417,0.785 -6.01,-0.809 L 92.893,70.206 63.312,99.787 83.367,119.85 c 1.592,1.593 1.923,4.054 0.808,6.01 -3.818,6.702 -6.783,13.861 -8.812,21.277 -0.595,2.174 -2.569,3.681 -4.823,3.681 H 42.173 v 41.835 H 70.54 c 2.253,0 4.228,1.507 4.823,3.681 2.029,7.416 4.994,14.575 8.813,21.278 1.114,1.957 0.784,4.417 -0.809,6.01 l -20.055,20.061 29.582,29.582 20.062,-20.055 c 0.961,-0.963 2.241,-1.465 3.535,-1.465 z m 48.349,-18.442 c -10.328,0 -20.551,-2.613 -29.564,-7.557 -2.421,-1.328 -3.308,-4.367 -1.979,-6.788 1.329,-2.421 4.368,-3.309 6.788,-1.979 7.544,4.138 16.104,6.324 24.756,6.324 28.435,0 51.568,-23.134 51.568,-51.568 0,-28.434 -23.133,-51.567 -51.568,-51.567 -28.435,0 -51.567,23.133 -51.567,51.567 0,8.018 1.798,15.711 5.345,22.865 1.226,2.474 0.215,5.474 -2.259,6.7 -2.476,1.225 -5.474,0.215 -6.701,-2.259 -4.237,-8.547 -6.385,-17.734 -6.385,-27.307 0,-33.948 27.619,-61.567 61.567,-61.567 33.949,0 61.568,27.619 61.568,61.567 -0.001,33.95 -27.62,61.569 -61.569,61.569 z"
               id="path37"
               style="fill:#000000;fill-opacity:1"
               inkscape:connector-curvature="0" />
          </g>
        </g>
      </g>
      <g
         id="g47" />
      <g
         id="g51" />
      <g
         id="g55" />
      <g
         id="g59" />
      <g
         id="g63" />
    </g>
  </g>
</svg>
