<?xml version="1.0" encoding="UTF-8" standalone="no"?>
<svg
   xmlns:v="http://vecta.io"
   xmlns:dc="http://purl.org/dc/elements/1.1/"
   xmlns:cc="http://creativecommons.org/ns#"
   xmlns:rdf="http://www.w3.org/1999/02/22-rdf-syntax-ns#"
   xmlns:svg="http://www.w3.org/2000/svg"
   xmlns="http://www.w3.org/2000/svg"
   xmlns:sodipodi="http://sodipodi.sourceforge.net/DTD/sodipodi-0.dtd"
   xmlns:inkscape="http://www.inkscape.org/namespaces/inkscape"
   width="128"
   height="128"
   viewBox="0 0 33.866666 33.866668"
   version="1.1"
   id="svg8"
   inkscape:version="1.0.1 (0767f8302a, 2020-10-17)"
   sodipodi:docname="bataBase.svg">
  <defs
     id="defs2" />
  <sodipodi:namedview
     id="base"
     pagecolor="#ffffff"
     bordercolor="#666666"
     borderopacity="1.0"
     inkscape:pageopacity="0.0"
     inkscape:pageshadow="2"
     inkscape:zoom="1.979899"
     inkscape:cx="-13.868862"
     inkscape:cy="24.25845"
     inkscape:document-units="mm"
     inkscape:current-layer="layer1"
     inkscape:document-rotation="0"
     showgrid="false"
     units="px"
     inkscape:window-width="1366"
     inkscape:window-height="672"
     inkscape:window-x="0"
     inkscape:window-y="27"
     inkscape:window-maximized="1" />
  <metadata
     id="metadata5">
    <rdf:RDF>
      <cc:Work
         rdf:about="">
        <dc:format>image/svg+xml</dc:format>
        <dc:type
           rdf:resource="http://purl.org/dc/dcmitype/StillImage" />
        <dc:title></dc:title>
      </cc:Work>
    </rdf:RDF>
  </metadata>
  <g
     inkscape:label="Layer 1"
     inkscape:groupmode="layer"
     id="layer1">
    <g
       id="klfof2h12ns"
       class="Group.cls"
       v:abox="{&quot;x&quot;:300,&quot;y&quot;:310,&quot;width&quot;:100,&quot;height&quot;:130}"
       v:symbol="viZBHk63yV4Swl9RYdkX3m"
       transform="matrix(0.1854601,0,0,0.1854601,7.5542306,4.4728251)">
      <g
         class="Prim.cls"
         id="g18">
        <g
           id="klfof2h12nt"
           transform="translate(0,11.932858)"
           v:unit="{&quot;strokeWidth&quot;:&quot;px&quot;}">
          <path
             d="m 99.818,0 v 6.4000627 c 0,2.9362127 -8.227,7.7533633 -23.681667,10.5059503 -8.632,1.5028 -17.377,2.247375 -26.136333,2.225113 -32.272667,0 -50,-8.372651 -50,-12.6623258 V 0 c 0,4.2895127 17.613667,12.662325 50,12.662325 8.794667,0.05883 17.577833,-0.655037 26.250167,-2.1333 C 91.591,7.6615503 99.818,2.9362126 99.818,0 Z"
             fill="#4f4f4f"
             stroke="none"
             stroke-width="1"
             id="path6"
             style="fill:#800000" />
        </g>
        <g
           id="klfof2h22nu"
           transform="translate(0.06816667,107.33629)"
           v:unit="{&quot;strokeWidth&quot;:&quot;px&quot;}">
          <path
             d="M 99.681833,0.84873753 C 99.782833,0.57720002 99.836667,0.29006251 99.840833,0 v 10.345563 c 0.0097,0.1144 0.0097,0.229612 0,0.344012 -0.02667,0.162988 -0.06467,0.324025 -0.1135,0.48165 v 0 0 c -0.07433,0.1989 -0.165666,0.390813 -0.272833,0.573463 V 11.9054 l -0.295333,0.412913 -0.432,0.527475 -0.431667,0.435988 -0.613667,0.527475 -0.591,0.4589 -0.795333,0.550387 -0.727167,0.4589 -1.023,0.55055 -0.818,0.435825 -1.386333,0.619288 -0.7955,0.344175 c -0.772833,0.3211 -1.591,0.619287 -2.4775,0.917475 l -0.9315,0.298187 -1.954833,0.596375 -1.295334,0.344175 -1.9545,0.504563 -1.500166,0.321262 -2.113667,0.435825 -1.704667,0.298188 -2.272666,0.367087 -1.840667,0.2522 -2.591,0.29835 -1.9545,0.206375 -3.113667,0.298188 -1.977333,0.137637 -3.5225,0.16055 h -1.7955 c -1.841,0 -3.727333,0 -5.704667,0 -18.181666,0 -31.818166,-2.29385 -40.909,-5.20715 C 5.2953333,15.162713 0.56816667,12.478863 0,10.57485 V 0.34401251 C 0.5,2.2251126 4.6816667,4.5878627 10.590667,6.8358878 L 10.5,6.3082502 c 13.706,4.2303628 27.962667,6.3644748 42.295333,6.3311628 1.977334,0 3.886334,0 5.727334,0 h 1.750166 l 3.568,-0.16055 1.931834,-0.137638 3,-0.252362 1.863666,-0.206538 2.704667,-0.3211 1.727167,-0.252362 L 77.5455,10.919025 88.909,8.1662753 q 1.386333,-0.48165 2.591,-0.9634625 l 2.272667,-0.9863751 0.522833,-0.275275 1.318,-0.7340125 0.523,-0.3211 0.999833,-0.665275 0.4545,-0.3440126 L 98.341,3.2344001 98.681667,2.8903876 c 0.186166,-0.1961375 0.360666,-0.403 0.522666,-0.61945 l 0.0455,-0.55055 z"
             fill="#4f4f4f"
             stroke="none"
             stroke-width="1"
             id="path9"
             style="fill:#800000" />
        </g>
        <g
           id="klfof2h32nv"
           v:unit="{&quot;strokeWidth&quot;:&quot;px&quot;}">
          <path
             d="M 50,0.00454509 C 58.796,-0.06467991 67.580833,0.65698262 76.250167,2.1607577 91.591,4.9135078 99.818,9.7077455 99.818,12.712858 c 0,3.00495 -8.227,7.66155 -23.681667,10.437213 C 67.502333,24.629471 58.7575,25.350809 50,25.306284 17.727333,25.306284 0,16.933471 0,12.643958 0,8.3544454 17.636333,0.00454509 50,0.00454509 Z"
             fill="#7d7c7c"
             stroke="none"
             stroke-width="1"
             id="path12"
             style="fill:#ff5529;fill-opacity:1" />
        </g>
        <g
           id="klfof2h32nw"
           transform="translate(0.091,24.801563)"
           v:unit="{&quot;strokeWidth&quot;:&quot;px&quot;}"
           class="">
          <path
             d="m 75.4545,8.5562753 c -1.386333,0.275275 -2.75,0.4587375 -4.113833,0.665275 -0.704334,0 -1.408834,0.2294501 -2.159,0.2981876 -1.272834,0.16055 -2.568167,0.2981875 -3.886334,0.435825 -0.840833,0 -1.7045,0.1605501 -2.545333,0.2065371 -1.659333,0.137638 -3.341167,0.229288 -5.045667,0.298188 h -0.840666 c -1.9775,0 -3.977334,0.137637 -6.068334,0.16055 H 49.5 C 29.681667,10.620838 9.7046667,7.1799003 0,0.64236252 V 87.535341 c 0.52266667,2.018575 5.2498333,4.5877 11.840833,6.881713 8.931667,2.867312 22.727334,5.20715 40.909,5.20715 C 86,99.738929 99.909,91.549578 99.909,87.168253 V 0 C 94.704333,3.6014876 86.272667,6.7211628 75.4545,8.5562753 Z"
             fill="#7d7c7c"
             stroke="none"
             stroke-width="1"
             id="path15"
             style="fill:#ed2a13;fill-opacity:1" />
        </g>
      </g>
    </g>
  </g>
</svg>
